<?xml version="1.0" encoding="UTF-8" standalone="no"?>
<!-- Created with Inkscape (http://www.inkscape.org/) -->

<svg
   xmlns:dc="http://purl.org/dc/elements/1.1/"
   xmlns:cc="http://creativecommons.org/ns#"
   xmlns:rdf="http://www.w3.org/1999/02/22-rdf-syntax-ns#"
   xmlns:svg="http://www.w3.org/2000/svg"
   xmlns="http://www.w3.org/2000/svg"
   version="1.0"
   width="215"
   height="215"
   id="svg2443">
  <defs
     id="defs2445">
    <linearGradient
       id="linearGradient15386">
      <stop
         id="stop15388"
         style="stop-color:#35a5ec;stop-opacity:1"
         offset="0" />
      <stop
         id="stop15390"
         style="stop-color:#2681da;stop-opacity:1"
         offset="1" />
    </linearGradient>
  </defs>
  <metadata
     id="metadata2448">
    <rdf:RDF>
      <cc:Work
         rdf:about="">
        <dc:format>image/svg+xml</dc:format>
        <dc:type
           rdf:resource="http://purl.org/dc/dcmitype/StillImage" />
        <dc:title></dc:title>
      </cc:Work>
    </rdf:RDF>
  </metadata>
  <g
     transform="translate(-137.17508,-142.83094)"
     id="layer1">
    <path
       d="m 222.95689,169.13322 -3.70327,1.13297 -2.87469,-0.64258 -2.26593,0.96386 -2.7225,-0.64257 -5.80011,0.96386 -2.4012,1.28515 -1.75864,0.3213 -2.41812,1.28515 -1.60644,0 -0.1691,-0.79477 -3.36507,0.4904 -1.13296,-1.47117 -0.96387,0.32129 -2.57032,3.70328 -5.631,3.06069 -1.75863,2.41812 -0.49039,2.87469 -0.1691,0.1691 -1.28516,1.60644 -3.21288,2.24902 -2.87469,0.65949 -2.09682,2.89159 -1.92773,1.11606 -1.60645,3.36508 -2.23212,1.80935 -3.39888,4.95461 -0.79478,2.24902 0.45658,-0.79477 0.98077,2.23212 -1.11606,2.09683 0.30437,3.87237 -1.92771,4.97151 -2.24904,2.26594 1.77555,2.06302 -0.1691,1.30204 1.94464,-0.32128 -1.60643,0.64257 -0.6595,-0.47347 -0.49038,2.07992 1.14988,0 -1.14988,0.47348 1.60644,0.1691 -0.79477,0.64258 0.96387,0.16909 -0.32128,0.62567 2.24901,-0.62567 -1.28515,0.49039 0.96385,0.45658 -1.11604,0.65948 0.49038,0.79476 0.62566,-0.30438 -0.30437,0.62567 0.79476,-0.49038 0.3213,2.26593 0.96386,0.47348 0.96387,0.49038 -0.49039,0.79477 0.81168,0.32129 0.15218,2.09683 0.81168,-0.15219 -1.11604,0.32129 1.75862,1.75863 -0.15219,0.96386 2.7225,1.43735 5.30971,4.98843 2.73941,1.13296 3.2129,-1.60644 4.98843,-0.64258 4.65022,1.28516 4.81933,-2.24902 3.38199,-1.30207 5.95229,-1.26825 -0.98078,0.6426 2.41813,0.16908 1.60644,1.43734 0.81167,-0.49038 -0.81167,0.65949 1.13297,0.15219 -0.81169,0.15219 0.3382,0.49038 0.79477,-0.49038 -0.79477,0.96386 1.60645,2.26592 1.75863,-0.16909 0,-0.64257 0.32129,0.64257 -0.1522,-0.81168 0.47349,0.81168 0.32128,-0.96386 0.64258,0.64258 2.26594,-0.16911 -0.1691,-0.94695 0.79476,1.11606 0.81168,-0.64258 0.79476,1.92773 1.30207,-0.32129 0.30437,0.64258 -0.62565,0 0.94694,1.92773 -1.60644,4.81932 0.98078,0.16911 -0.1691,1.60644 -0.81168,-0.1691 1.60644,0.81168 -1.11605,0.32128 -0.49039,-0.64257 -0.49037,2.57031 -1.11608,0 2.41813,4.34584 5.30972,5.14063 1.11606,3.21288 1.28515,0.64259 -1.11606,0.32128 2.8916,5.7832 -0.96386,1.60643 1.11606,2.26595 1.11604,2.55339 -0.45656,3.07761 -2.75632,2.87468 -1.75864,5.9692 0.32129,5.14063 6.59488,10.75471 1.13296,8.67479 5.14061,8.21823 2.23212,3.68636 0.1691,1.75863 -0.96388,0.65949 1.13298,3.04379 0.81167,-0.47349 2.40121,1.60645 5.46191,-1.75863 4.66714,0.47348 4.66713,-1.28515 6.91617,-4.81934 2.24902,-2.89159 0.96386,-1.13297 2.55341,-2.09683 2.09682,-5.445 -0.32128,0.45657 -0.64258,-0.79477 7.08526,-4.17675 0.62567,-4.49804 -1.43734,-3.85546 0.15218,-2.09683 0.49039,0.49039 3.53418,-2.41813 1.45425,-2.4012 7.23744,-3.38199 0.32131,-0.64258 2.2321,-3.21288 -0.45658,-4.66715 0.45658,-0.49038 -0.32129,-3.53418 0.81167,-1.60644 -1.43733,-1.11606 -0.6595,-0.49038 0,-0.15218 -0.62565,-4.19367 0.47347,-1.11606 -0.64259,0 0.96388,-2.09683 -1.77554,-2.40122 1.13296,-3.38198 1.92772,-4.02456 0.4904,-0.96386 1.92773,-1.11605 -0.49039,-0.79477 1.30207,0 5.14058,-6.78088 5.445,-4.32896 4.02456,-5.1406 5.30972,-12.37807 0,-1.45425 -0.15216,-0.81168 1.11605,-0.30438 -0.79479,0 0.15221,-3.36508 -1.13299,-0.49039 -2.55337,1.60645 -4.36276,0.49038 -1.91084,1.11606 -1.45425,-0.49039 -2.57032,1.28515 -3.36505,-3.06068 -1.45425,0.16909 1.92773,-1.11606 -0.32131,-1.13295 -5.3097,-5.30972 -2.24901,-0.79478 -0.4904,-0.81167 -0.47348,-0.47347 -0.15219,0.96386 -3.38198,-7.23746 -2.9085,-1.94463 -1.26825,-5.445 0.47348,0.30438 -1.26824,-2.4012 -2.90851,-2.09683 -0.79477,-2.24903 0.62567,0 -1.60644,-1.28515 -4.32895,-7.55874 -2.41811,-2.57031 -0.57494,-1.92773 c -0.006,-0.01 -0.0109,-0.0238 -0.0169,-0.0338 -0.0325,-0.0546 -0.0678,-0.11872 -0.0845,-0.186 -0.11032,-0.44124 -0.37202,-0.90561 -0.37202,-1.47116 -10e-6,-0.0797 0,-0.15704 0,-0.23675 0,-0.24201 -0.0305,-0.49457 -0.0676,-0.74404 l -0.81167,0.11838 -0.47348,-0.98078 -1.92773,-0.1691 -3.87238,1.60645 -4.48112,-1.26825 -3.87238,-0.1691 -0.64258,-0.96387 -3.53417,-0.47347 -0.49039,-0.98078 -2.8916,-0.62566 -3.38199,1.60644 0,2.87469 -0.15219,0 -2.26594,1.14987 -2.4012,-1.30207 -4.49804,-1.11605 -1.13296,-2.09683 -3.85546,-1.11605 -2.23212,0.15218 -4.36276,-1.92773 -0.32129,-0.98078 2.58722,-2.063 -1.28515,-1.94465 1.28515,-1.92773 -1.28515,0.79476 -1.30207,-1.28515 z m -57.03719,29.1358 0.13529,-0.20292 -0.4904,0.49039 0.35511,-0.28747 z m 26.63315,-26.43021 0.0338,0.0507 0.0845,-0.0507 c -0.0393,0.002 -0.079,-0.002 -0.11836,0 z m -18.93913,14.50872 -1.13297,0.81167 0.81168,-0.3382 0.32129,-0.47347 z m -1.13297,0.96386 -1.60644,1.60644 0.96388,-0.32128 0.64256,-1.28516 z m -4.32893,0.47348 -1.60644,0.49039 0.15219,0.81168 1.45425,-1.30207 z m 0.47347,0.81168 -0.32128,0.64257 0.79477,-0.15218 -0.47349,-0.49039 z m 104.97684,9.46955 0.81167,2.58722 -2.24902,0.49039 -2.09683,2.7225 1.28515,-2.5703 1.92773,-0.47348 0.3213,-2.75633 z m -108.18972,17.36649 1.60644,1.30207 1.13297,2.40121 -2.73941,-3.53417 -3.68637,0.15218 3.68637,-0.32129 z m 126.3679,1.92773 0.15218,0.6595 0.96386,0.15218 -0.96386,-0.81168 -0.15218,0 z m -104.99376,0.49039 0.81168,0.96387 -0.64257,0.1522 -0.16911,-1.11607 z m 42.46084,4.19367 0.45656,1.60644 0.98078,-0.49039 0,0.79477 2.24902,0.32128 -2.8916,1.45427 -1.77554,-3.382 0.98078,-0.30437 z m 57.69667,4.00765 -0.30438,1.75864 -0.81168,-1.26825 1.11606,-0.49039 z m -81.01547,2.41812 1.43735,1.11605 -0.47347,2.24903 0,0.3382 -0.1522,-0.3382 -0.49039,-0.96388 0.94696,-1.28515 -1.26825,-1.11605 z m -12.85154,5.631 2.5534,3.0438 0.1691,0.32128 0.49039,-3.0607 -0.65949,7.06835 0,-0.79477 -0.15219,-0.15219 -1.77555,-0.81168 1.60645,0.49039 0.1691,-0.33819 0.32129,-1.26825 -0.32129,-0.49038 -0.49039,-0.1691 -1.11605,0 1.43734,-0.47348 -1.60645,-0.81168 -0.32128,-1.43734 -1.77555,0 1.62336,-0.1691 -0.15219,-0.94696 z m 17.99217,1.11606 0.96386,2.09683 -0.96386,5.93539 0.81166,-6.10448 -0.81166,-1.92774 z m -28.29031,1.28515 -0.64258,1.75864 0.32129,0.49039 0.62566,-0.49039 -0.30437,1.28515 -0.96387,-1.11606 0.96387,-1.92773 z m 102.08523,8.67479 1.11605,5.80012 -1.92773,-3.21289 0.81168,-2.58723 z m -67.67353,2.26594 -1.30206,0.94695 0,0.1691 0.64256,0.32129 0.6595,-1.43734 z m 23.30188,3.36506 -1.13298,7.23747 1.77555,-3.70328 2.09683,-1.11606 1.75864,-0.96386 0.47348,-0.33819 5.2759,-0.42276 0.20292,-0.0338 0.0338,0.0169 0.28746,-0.0169 5.30971,3.66946 -5.59717,-3.65255 -0.23675,0.0169 -5.74937,1.23442 -1.75864,0.49039 -2.26592,1.60644 0.16909,2.07992 -5.63101,5.46191 -0.16909,2.26593 -0.15219,-2.09684 4.02456,-4.49803 1.28516,-7.23746 z m 33.10964,0.16912 -0.49039,1.75862 -1.75864,1.60645 -0.16909,-1.11606 2.41812,-2.24901 z m 4.98843,1.75862 -0.96387,0.33821 0.32129,0.79476 -1.60645,-0.49039 2.24903,-0.64258 z m -0.32129,2.8916 0.32129,0.81168 1.13296,-0.15219 0.62567,1.60644 1.14988,-0.65948 0.30436,0.49039 -1.92772,0.64257 -0.15219,2.40121 -1.92773,1.28516 1.60644,0.49038 -1.13296,0.81168 -1.13297,-0.3213 0.1691,1.11606 -0.64258,0.49039 0.15219,-1.28515 -1.43734,-0.64257 -0.96387,1.43733 -0.49038,-2.09682 0.96386,-4.97152 1.60644,-0.79477 0.81168,0.47347 0.96387,-1.13296 z m -8.5226,1.60645 -1.28516,1.28515 0.32128,-1.11606 0.96388,-0.16909 z m -50.00267,1.77554 0.81168,0.32129 -0.81168,0.49038 0,-0.81167 z m 21.56016,1.92774 -0.65949,0.98077 0.81168,0.30437 -0.96386,1.45426 -0.3382,-2.41812 1.14987,-0.32128 z m 26.36258,0 0.79477,1.11605 -1.28516,1.13296 0.49039,-2.24901 z m 0.62566,4.49802 1.45427,6.1214 -0.64259,1.11606 2.07993,1.75863 1.30206,4.51496 -1.60645,-0.64258 -0.81167,-3.0607 -2.24902,-2.8916 0.1522,-5.15753 -0.47349,0.65949 0.79476,-2.41813 z m 23.79227,5.9523 -0.30436,1.11606 0.79476,0.81168 -0.32129,-1.28515 -0.16911,-0.64259 z m -17.67087,4.65024 1.45426,1.30206 -1.45426,-0.32129 0,-0.98077 z m -5.4619,2.26593 0.94695,0.15219 -1.60645,0.96386 0.6595,-1.11605 z m -1.45426,0.32128 -1.13297,2.09684 -0.94695,0.15218 0.15219,-1.13297 1.92773,-1.11605 z m 11.73549,2.24902 1.11606,1.13298 0.81168,3.68636 -0.81168,2.40121 0.98077,4.83623 -1.45425,-0.64257 -1.13297,-4.65023 0.98078,-1.45425 -0.64257,-4.17675 -0.16911,-0.6595 0.16911,0 0.15218,-0.47348 z m -10.12905,3.38199 0.16911,0 0,0.96387 -0.81168,0.32128 0.64257,-1.28515 z m 31.35101,1.28515 -0.32131,0.79477 0.47347,0.49039 -0.15216,-1.28516 z m 12.69934,1.43735 -1.28516,1.11606 -0.16911,2.26593 -1.26821,1.11605 -0.65952,-0.47349 0,1.60646 -0.49036,0 -0.94695,1.92772 0.15215,-0.96386 -1.11604,1.28516 0.30437,0.64257 -0.62564,0.32129 0.16911,-0.96386 -1.14988,0.81167 0,1.11605 -0.6257,-0.64257 -3.85546,1.13296 -1.60642,3.21289 0.32127,5.95229 -2.5872,3.04379 -0.94695,2.41813 0.32129,6.27357 1.75863,0.94696 4.49801,-1.11606 7.88003,-15.91224 0.47347,-2.40121 0.98079,-0.81168 0,-3.21288 0.62568,-0.1691 0.3382,1.28515 0.79474,-1.28515 -0.32126,-5.93539 -1.28515,-1.77554 0.32127,-0.81167 z m -10.45035,0.1691 -0.47348,0.32129 0.62571,0.47346 -0.15223,-0.79475 z m -36.33941,11.09291 -2.2321,0.64257 -2.73941,2.73942 2.07992,-2.73942 2.89159,-0.64257 z m 59.65824,8.20131 -0.65952,1.28516 0.81168,-0.65949 -0.15216,-0.62567 z m -4.02456,2.09684 -0.7948,0.30437 0.7948,0.81168 0,-1.11605 z m -63.66589,14.93146 -0.49039,0.96387 -0.8624,-0.27057 -0.0338,0 0.57494,0.43968 -0.79478,-0.3213 0.21984,-0.11838 -0.0507,-0.0338 0.0845,0.0338 1.35279,-0.6933 z"
       id="path14267"
       style="fill:#000000;fill-opacity:1;fill-rule:nonzero;stroke:none" />
  </g>
</svg>
