<?xml version="1.0" encoding="UTF-8" standalone="no"?>
<!-- Created with Inkscape (http://www.inkscape.org/) -->

<svg
   xmlns:dc="http://purl.org/dc/elements/1.1/"
   xmlns:cc="http://creativecommons.org/ns#"
   xmlns:rdf="http://www.w3.org/1999/02/22-rdf-syntax-ns#"
   xmlns:svg="http://www.w3.org/2000/svg"
   xmlns="http://www.w3.org/2000/svg"
   xmlns:sodipodi="http://sodipodi.sourceforge.net/DTD/sodipodi-0.dtd"
   xmlns:inkscape="http://www.inkscape.org/namespaces/inkscape"
   width="640"
   height="440"
   id="svg2"
   version="1.1"
   inkscape:version="0.48.5 r10040"
   sodipodi:docname="ifthen-bloodandaliens.svg"
   style="enable-background:new">
  <defs
     id="defs4" />
  <sodipodi:namedview
     id="base"
     pagecolor="#ffffff"
     bordercolor="#666666"
     borderopacity="1.0"
     inkscape:pageopacity="0.0"
     inkscape:pageshadow="2"
     inkscape:zoom="0.81774194"
     inkscape:cx="315.04632"
     inkscape:cy="220"
     inkscape:document-units="px"
     inkscape:current-layer="layer4"
     showgrid="true"
     inkscape:window-width="1042"
     inkscape:window-height="661"
     inkscape:window-x="46"
     inkscape:window-y="3"
     inkscape:window-maximized="0"
     fit-margin-top="0"
     fit-margin-left="0"
     fit-margin-right="0"
     fit-margin-bottom="0">
    <inkscape:grid
       type="xygrid"
       id="grid2985"
       empspacing="5"
       visible="true"
       enabled="true"
       snapvisiblegridlinesonly="true"
       originx="-40px"
       originy="-200px" />
  </sodipodi:namedview>
  <metadata
     id="metadata7">
    <rdf:RDF>
      <cc:Work
         rdf:about="">
        <dc:format>image/svg+xml</dc:format>
        <dc:type
           rdf:resource="http://purl.org/dc/dcmitype/StillImage" />
        <dc:title></dc:title>
      </cc:Work>
    </rdf:RDF>
  </metadata>
  <g
     inkscape:groupmode="layer"
     id="layer3"
     inkscape:label="everything else"
     transform="translate(-40,-412.36218)">
    <rect
       style="fill:#0e232e;fill-opacity:1;fill-rule:nonzero;stroke:none"
       id="rect3032"
       width="640"
       height="440"
       x="40"
       y="412.36218" />
  </g>
  <g
     inkscape:label="green"
     inkscape:groupmode="layer"
     id="layer1"
     transform="translate(-40,-412.36218)">
    <path
       sodipodi:type="arc"
       style="fill:#9ade00;fill-opacity:1;fill-rule:nonzero;stroke:#ffffff;stroke-width:10;stroke-miterlimit:4;stroke-opacity:1;stroke-dasharray:none;opacity:1"
       id="path3066"
       sodipodi:cx="240"
       sodipodi:cy="612.36218"
       sodipodi:rx="160"
       sodipodi:ry="160"
       d="m 400,612.36218 c 0,88.36556 -71.63444,160 -160,160 -88.36556,0 -160,-71.63444 -160,-160 0,-88.36556 71.63444,-160 160,-160 88.36556,0 160,71.63444 160,160 z"
       transform="translate(60,0)" />
  </g>
  <g
     inkscape:groupmode="layer"
     id="layer2"
     inkscape:label="aliens"
     transform="translate(-40,-412.36218)"
     style="display:inline">
    <path
       sodipodi:type="arc"
       style="fill:#dc0000;fill-opacity:1;fill-rule:nonzero;stroke:none;stroke-width:5;stroke-miterlimit:4;stroke-opacity:1;stroke-dasharray:none"
       id="path3068"
       sodipodi:cx="400"
       sodipodi:cy="612.36218"
       sodipodi:rx="160"
       sodipodi:ry="160"
       d="m 560,612.36218 a 160,160 0 1 1 -320,0 160,160 0 1 1 320,0 z"
       transform="translate(20,0)" />
    <path
       style="enable-background:new;fill:#ffffff;fill-opacity:1;fill-rule:nonzero;stroke:#ffffff;stroke-width:10;stroke-miterlimit:4;stroke-opacity:1;stroke-dasharray:none;opacity:1"
       d="M 320 51.625 C 261.36719 75.362278 220 132.85518 220 200 C 220 267.14482 261.36719 324.63772 320 348.375 C 378.63281 324.63772 420 267.14482 420 200 C 420 132.85518 378.63281 75.362278 320 51.625 z "
       transform="translate(40,412.36218)"
       id="path4110" />
  </g>
  <g
     inkscape:groupmode="layer"
     id="layer4"
     inkscape:label="Layer"
     style="display:inline"
     transform="translate(-40,-412.36218)">
    <text
       xml:space="preserve"
       style="font-size:20px;font-style:normal;font-variant:normal;font-weight:normal;font-stretch:normal;line-height:125%;letter-spacing:0px;word-spacing:0px;fill:#000000;fill-opacity:1;stroke:none;font-family:Montserrat;-inkscape-font-specification:Montserrat"
       x="160"
       y="602.36218"
       id="text3075"
       sodipodi:linespacing="125%"><tspan
         sodipodi:role="line"
         id="tspan3077"
         x="160"
         y="602.36218">green</tspan><tspan
         sodipodi:role="line"
         x="160"
         y="627.36218"
         id="tspan3079">blooded</tspan></text>
    <text
       sodipodi:linespacing="125%"
       id="text3081"
       y="602.36218"
       x="360"
       style="font-size:20px;font-style:normal;font-variant:normal;font-weight:normal;font-stretch:normal;line-height:125%;letter-spacing:0px;word-spacing:0px;fill:#000000;fill-opacity:1;stroke:none;font-family:Montserrat;-inkscape-font-specification:Montserrat"
       xml:space="preserve"><tspan
         id="tspan3085"
         y="602.36218"
         x="360"
         sodipodi:role="line"
         style="text-align:center;text-anchor:middle">vicious</tspan><tspan
         y="627.36218"
         x="360"
         sodipodi:role="line"
         style="text-align:center;text-anchor:middle"
         id="tspan3101">goo-stuffed</tspan><tspan
         y="652.36218"
         x="360"
         sodipodi:role="line"
         id="tspan3089"
         style="text-align:center;text-anchor:middle">extra-terrestrials</tspan></text>
    <text
       sodipodi:linespacing="125%"
       id="text3091"
       y="602.36218"
       x="560"
       style="font-size:20px;font-style:normal;font-variant:normal;font-weight:normal;font-stretch:normal;text-align:end;line-height:125%;letter-spacing:0px;word-spacing:0px;text-anchor:end;fill:#000000;fill-opacity:1;stroke:none;font-family:Montserrat;-inkscape-font-specification:Montserrat"
       xml:space="preserve"><tspan
         y="602.36218"
         x="560"
         sodipodi:role="line"
         id="tspan3099">ET's</tspan></text>
    <text
       xml:space="preserve"
       style="font-size:20px;font-style:normal;font-variant:normal;font-weight:normal;font-stretch:normal;line-height:125%;letter-spacing:0px;word-spacing:0px;fill:#ffffff;fill-opacity:1;stroke:none;font-family:Montserrat;-inkscape-font-specification:Montserrat"
       x="360"
       y="812.36218"
       id="text3103"
       sodipodi:linespacing="125%"><tspan
         style="text-align:center;text-anchor:middle;fill:#ffffff"
         id="tspan3109"
         sodipodi:role="line"
         x="360"
         y="812.36218">other blood-pumping or bloodless (likely heartless) creatures</tspan></text>
  </g>
  <g
     inkscape:groupmode="layer"
     id="layer9"
     inkscape:label="bg"
     style="display:inline"
     transform="translate(-40,-412.36218)">
    <rect
       style="fill:#0e232e;fill-opacity:1;fill-rule:nonzero;stroke:none;display:inline"
       id="rect3146"
       width="280"
       height="200"
       x="40"
       y="132.36218" />
    <rect
       y="132.36218"
       x="400"
       height="200"
       width="280"
       id="rect3293"
       style="fill:#0e232e;fill-opacity:1;fill-rule:nonzero;stroke:none;display:inline" />
  </g>
  <g
     inkscape:groupmode="layer"
     id="layer6"
     inkscape:label="mc2"
     style="display:inline"
     transform="translate(-40,-412.36218)">
    <path
       sodipodi:type="arc"
       style="fill:#dc0000;fill-opacity:1;fill-rule:nonzero;stroke:none"
       id="path3142"
       sodipodi:cx="140"
       sodipodi:cy="192.36218"
       sodipodi:rx="60"
       sodipodi:ry="60"
       d="m 200,192.36218 c 0,33.13709 -26.86292,60 -60,60 -33.13708,0 -60,-26.86291 -60,-60 0,-33.13708 26.86292,-60 60,-60 33.13708,0 60,26.86292 60,60 z"
       transform="translate(0,40)" />
    <path
       transform="translate(360,40)"
       d="m 200,192.36218 c 0,33.13709 -26.86292,60 -60,60 -33.13708,0 -60,-26.86291 -60,-60 0,-33.13708 26.86292,-60 60,-60 33.13708,0 60,26.86292 60,60 z"
       sodipodi:ry="60"
       sodipodi:rx="60"
       sodipodi:cy="192.36218"
       sodipodi:cx="140"
       id="path3295"
       style="fill:#dc0000;fill-opacity:1;fill-rule:nonzero;stroke:none"
       sodipodi:type="arc" />
  </g>
  <g
     inkscape:groupmode="layer"
     id="layer5"
     inkscape:label="mc"
     style="display:inline"
     transform="translate(-40,-412.36218)">
    <path
       sodipodi:type="arc"
       style="fill:#ff9900;fill-opacity:1;fill-rule:nonzero;stroke:none"
       id="path3144"
       sodipodi:cx="220"
       sodipodi:cy="192.36218"
       sodipodi:rx="60"
       sodipodi:ry="60"
       d="m 280,192.36218 c 0,33.13709 -26.86292,60 -60,60 -33.13708,0 -60,-26.86291 -60,-60 0,-33.13708 26.86292,-60 60,-60 33.13708,0 60,26.86292 60,60 z"
       transform="translate(-10,40)" />
    <path
       d="m 280,192.36218 c 0,33.13709 -26.86292,60 -60,60 -33.13708,0 -60,-26.86291 -60,-60 0,-33.13708 26.86292,-60 60,-60 33.13708,0 60,26.86292 60,60 z"
       sodipodi:ry="60"
       sodipodi:rx="60"
       sodipodi:cy="192.36218"
       sodipodi:cx="220"
       id="path3297"
       style="fill:#ff9900;fill-opacity:1;fill-rule:nonzero;stroke:none"
       sodipodi:type="arc"
       transform="translate(350,40)" />
  </g>
  <g
     inkscape:groupmode="layer"
     id="layer8"
     inkscape:label="mask"
     transform="translate(-40,-412.36218)">
    <path
       style="fill:#dc0000;fill-opacity:1;fill-rule:nonzero;stroke:none;display:inline"
       d="m 175,183.625 c -5.27724,3.7972 -9.9181,8.44121 -13.71875,13.71875 l 27.4375,0 C 184.9181,192.06621 180.27724,187.4222 175,183.625 z m -19.53125,23.71875 c -1.46684,3.19262 -2.66905,6.53577 -3.5625,10 l 46.1875,0 c -0.89345,-3.46423 -2.09566,-6.80738 -3.5625,-10 l -39.0625,0 z m -5.25,20 C 150.08157,228.99915 150,230.68439 150,232.375 c 0,1.66945 0.0849,3.334 0.21875,4.96875 l 49.5625,0 C 199.91505,235.709 200,234.04445 200,232.375 c 0,-1.69061 -0.0816,-3.37585 -0.21875,-5.03125 l -49.5625,0 z m 1.6875,20 c 0.89156,3.46931 2.06405,6.80359 3.53125,10 l 39.125,0 c 1.4672,-3.19641 2.63969,-6.53069 3.53125,-10 l -46.1875,0 z m 9.34375,20 c 3.80773,5.29447 8.45516,9.94014 13.75,13.75 5.29484,-3.80986 9.94227,-8.45553 13.75,-13.75 l -27.5,0 z"
       id="path3262"
       inkscape:connector-curvature="0" />
    <path
       id="path3299"
       d="m 535,183.625 c -5.27724,3.7972 -9.9181,8.44121 -13.71875,13.71875 l 27.4375,0 C 544.9181,192.06621 540.27724,187.4222 535,183.625 z m -19.53125,23.71875 c -1.46684,3.19262 -2.66905,6.53577 -3.5625,10 l 46.1875,0 c -0.89345,-3.46423 -2.09566,-6.80738 -3.5625,-10 l -39.0625,0 z m -5.25,20 C 510.08157,228.99915 510,230.68439 510,232.375 c 0,1.66945 0.0849,3.334 0.21875,4.96875 l 49.5625,0 C 559.91505,235.709 560,234.04445 560,232.375 c 0,-1.69061 -0.0816,-3.37585 -0.21875,-5.03125 l -49.5625,0 z m 1.6875,20 c 0.89156,3.46931 2.06405,6.80359 3.53125,10 l 39.125,0 c 1.4672,-3.19641 2.63969,-6.53069 3.53125,-10 l -46.1875,0 z m 9.34375,20 c 3.80773,5.29447 8.45516,9.94014 13.75,13.75 5.29484,-3.80986 9.94227,-8.45553 13.75,-13.75 l -27.5,0 z"
       style="fill:#dc0000;fill-opacity:1;fill-rule:nonzero;stroke:none;display:inline"
       inkscape:connector-curvature="0" />
  </g>
  <g
     inkscape:groupmode="layer"
     id="layer7"
     inkscape:label="mct"
     style="display:inline"
     transform="translate(-40,-412.36218)">
    <text
       xml:space="preserve"
       style="font-size:12px;font-style:normal;font-variant:normal;font-weight:normal;font-stretch:normal;line-height:125%;letter-spacing:0px;word-spacing:0px;fill:#000000;fill-opacity:1;stroke:none;font-family:Montserrat;-inkscape-font-specification:Montserrat"
       x="90"
       y="229.26619"
       id="text3199"
       sodipodi:linespacing="125%"><tspan
         sodipodi:role="line"
         id="tspan3201"
         x="90"
         y="229.26619"
         style="font-size:12px">regular</tspan><tspan
         sodipodi:role="line"
         x="90"
         y="244.26619"
         style="font-size:12px"
         id="tspan3207">folks</tspan></text>
    <text
       sodipodi:linespacing="125%"
       id="text3203"
       y="228.04218"
       x="220"
       style="font-size:20px;font-style:normal;font-variant:normal;font-weight:normal;font-stretch:normal;line-height:125%;letter-spacing:0px;word-spacing:0px;fill:#000000;fill-opacity:1;stroke:none;font-family:Montserrat;-inkscape-font-specification:Montserrat"
       xml:space="preserve"><tspan
         y="228.04218"
         x="220"
         id="tspan3205"
         sodipodi:role="line"
         style="font-size:12px">need</tspan><tspan
         y="243.04218"
         x="220"
         sodipodi:role="line"
         style="font-size:12px"
         id="tspan3319">money</tspan></text>
    <text
       xml:space="preserve"
       style="font-size:40px;font-style:normal;font-variant:normal;font-weight:normal;font-stretch:normal;line-height:125%;letter-spacing:0px;word-spacing:0px;fill:#000000;fill-opacity:1;stroke:none;font-family:Montserrat;-inkscape-font-specification:Montserrat"
       x="160.49237"
       y="236.76338"
       id="text3209"
       sodipodi:linespacing="125%"><tspan
         sodipodi:role="line"
         id="tspan3211"
         x="160.49237"
         y="236.76338"
         style="font-size:12px">debt</tspan></text>
    <text
       sodipodi:linespacing="125%"
       id="text3301"
       y="236.86818"
       x="450"
       style="font-size:20px;font-style:normal;font-variant:normal;font-weight:normal;font-stretch:normal;line-height:125%;letter-spacing:0px;word-spacing:0px;fill:#000000;fill-opacity:1;stroke:none;font-family:Montserrat;-inkscape-font-specification:Montserrat"
       xml:space="preserve"><tspan
         id="tspan3305"
         style="font-size:12px"
         y="236.86818"
         x="450"
         sodipodi:role="line">richies</tspan></text>
    <text
       xml:space="preserve"
       style="font-size:20px;font-style:normal;font-variant:normal;font-weight:normal;font-stretch:normal;line-height:125%;letter-spacing:0px;word-spacing:0px;fill:#000000;fill-opacity:1;stroke:none;font-family:Montserrat;-inkscape-font-specification:Montserrat"
       x="580"
       y="227.78418"
       id="text3307"
       sodipodi:linespacing="125%"><tspan
         style="font-size:12px"
         sodipodi:role="line"
         id="tspan3309"
         x="580"
         y="227.78418">want</tspan><tspan
         style="font-size:12px"
         sodipodi:role="line"
         x="580"
         y="242.78418"
         id="tspan3321">money</tspan></text>
    <text
       sodipodi:linespacing="125%"
       id="text3311"
       y="228.05138"
       x="534.55731"
       style="font-size:40px;font-style:normal;font-variant:normal;font-weight:normal;font-stretch:normal;text-align:center;line-height:125%;letter-spacing:0px;word-spacing:0px;text-anchor:middle;fill:#000000;fill-opacity:1;stroke:none;font-family:Montserrat;-inkscape-font-specification:Montserrat"
       xml:space="preserve"><tspan
         style="font-size:12px;text-align:center;text-anchor:middle"
         y="228.05138"
         x="534.55731"
         id="tspan3313"
         sodipodi:role="line">money</tspan><tspan
         style="font-size:12px;text-align:center;text-anchor:middle"
         y="243.05138"
         x="534.55731"
         sodipodi:role="line"
         id="tspan3317">tree</tspan></text>
  </g>
</svg>
